# xmcd
#
# Track frame offsets: 
#        150
#        16917
#        43879
#        60853
#        85107
#        102028
#        135219
#        158235
#        188085
#        215073
#        249331
#        263585
#        287083
#        317621
#
# Disc length: 4476 seconds
#
# Revision: 0
# Processed by: cddbd v1.5.1PL0 Copyright (c) Steve Scherf et al.
# Submitted via: ExactAudioCopy v0.95a5
#
DISCID=b0117a0e
DTITLE=Various Artist - Dream City Vol. 2 [CD 2)
DYEAR=2000
DGENRE=Trance
TTITLE0=Carlos - Rush Me
TTITLE1=Sharam - Anytime is Partytime
TTITLE2=Der Dritte Raum - Hale Bopp
TTITLE3=Paffendorff - Smile
TTITLE4=Koala - Planet Blue
TTITLE5=CM - Sensation (Marino Stephano remix)
TTITLE6=Marc Noise - Armageddon
TTITLE7=Commander Tom - Kiss Myself (Mandala remix)
TTITLE8=DJ Ed - Ocean of Tears
TTITLE9=DJ Mind-X - Allright
TTITLE10=Dune - Electric Heaven
TTITLE11=S-Cape - Brain Vitalizer
TTITLE12=Nautilus Vol. 3 - Kick Some Ass
TTITLE13=Resistance - Impression
EXTD=
EXTT0=
EXTT1=
EXTT2=
EXTT3=
EXTT4=
EXTT5=
EXTT6=
EXTT7=
EXTT8=
EXTT9=
EXTT10=
EXTT11=
EXTT12=
EXTT13=
PLAYORDER=
